<?xml version="1.0" encoding="UTF-8"?>
<svg id="Calque_2" data-name="Calque 2" xmlns="http://www.w3.org/2000/svg" viewBox="0 0 81.8 81.8">
  <defs>
    <style>
      .cls-1 {
        fill: #fff;
        fill-rule: evenodd;
      }
    </style>
  </defs>
  <g id="Calque_1-2" data-name="Calque 1">
    <path class="cls-1" d="m33.56,3.24c3.94-4.32,10.74-4.32,14.68,0,1.3,1.42,3.3,1.96,5.14,1.38,5.57-1.77,11.46,1.63,12.71,7.34.41,1.88,1.88,3.35,3.76,3.76,5.71,1.25,9.11,7.14,7.34,12.71-.58,1.83-.05,3.84,1.38,5.14,4.32,3.94,4.32,10.74,0,14.68-1.42,1.3-1.96,3.3-1.38,5.14,1.77,5.57-1.63,11.46-7.34,12.71-1.88.41-3.35,1.88-3.76,3.76-1.25,5.71-7.14,9.11-12.71,7.34-1.83-.58-3.84-.05-5.14,1.38-3.94,4.32-10.74,4.32-14.68,0-1.3-1.42-3.3-1.96-5.14-1.38-5.57,1.77-11.46-1.63-12.71-7.34-.41-1.88-1.88-3.35-3.76-3.76-5.71-1.25-9.11-7.14-7.34-12.71.58-1.83.05-3.84-1.38-5.14-4.32-3.94-4.32-10.74,0-14.68,1.42-1.3,1.96-3.3,1.38-5.14-1.77-5.57,1.63-11.46,7.34-12.71,1.88-.41,3.35-1.88,3.76-3.76,1.25-5.71,7.14-9.11,12.71-7.34,1.83.58,3.84.05,5.14-1.38Zm10.98,3.37c-1.95-2.14-5.33-2.14-7.28,0-2.61,2.87-6.65,3.95-10.35,2.77-2.76-.88-5.69.81-6.31,3.64-.83,3.79-3.79,6.75-7.58,7.58-2.83.62-4.52,3.54-3.64,6.31,1.18,3.7.09,7.74-2.77,10.35-2.14,1.95-2.14,5.33,0,7.28,2.87,2.61,3.95,6.65,2.77,10.35-.88,2.76.81,5.69,3.64,6.31,3.79.83,6.75,3.79,7.58,7.58.62,2.83,3.54,4.52,6.31,3.64,3.7-1.18,7.74-.09,10.35,2.77,1.95,2.14,5.33,2.14,7.28,0,2.61-2.87,6.65-3.95,10.35-2.77,2.76.88,5.69-.81,6.31-3.64.83-3.79,3.79-6.75,7.58-7.58,2.83-.62,4.52-3.54,3.64-6.31-1.18-3.7-.09-7.74,2.77-10.35,2.14-1.95,2.14-5.33,0-7.28-2.87-2.61-3.95-6.65-2.77-10.35.88-2.76-.81-5.69-3.64-6.31-3.79-.83-6.75-3.79-7.58-7.58-.62-2.83-3.54-4.52-6.31-3.64-3.7,1.18-7.74.09-10.35-2.77Z"/>
    <path class="cls-1" d="m58.24,31.35c.98.98.98,2.56,0,3.54l-14.83,14.83c-2.93,2.93-7.68,2.93-10.61,0l-6.68-6.68c-.98-.98-.98-2.56,0-3.54.98-.98,2.56-.98,3.54,0l6.68,6.68c.98.98,2.56.98,3.54,0l14.83-14.83c.98-.98,2.56-.98,3.54,0Z"/>
  </g>
</svg>