<svg viewBox="0 0 82 69" fill="none" xmlns="http://www.w3.org/2000/svg">
<path fill-rule="evenodd" clip-rule="evenodd" d="M5 11.5C5 7.9101 7.9101 5 11.5 5H36.2687C38.2043 5 40.0393 5.8627 41.2742 7.3533L45.952 13H5V11.5ZM5 18V57.5C5 61.0899 7.9102 64 11.5 64H69.5195C73.1039 64 76.0117 61.0985 76.0195 57.5141L76.0913 24.5141C76.0991 20.9188 73.1867 18 69.5913 18H62.5H55.5008H5ZM62.5 13H69.5913C75.9524 13 81.105 18.164 81.091 24.525L81.02 57.525C81.006 63.8665 75.8611 69 69.5195 69H11.5C5.1487 69 0 63.8513 0 57.5V11.5C0 5.1487 5.1487 0 11.5 0H36.2687C39.6933 0 42.9398 1.5263 45.1246 4.1636L50.4953 10.6467C51.7302 12.1373 53.5651 13 55.5008 13H62.5Z" fill="#DE68DE"/>
</svg>
