<svg viewBox="0 0 81 82" fill="none" xmlns="http://www.w3.org/2000/svg">
<path fill-rule="evenodd" clip-rule="evenodd" d="M40.9693 27.4271C39.3766 29.0198 38.2728 31.0349 37.7883 33.2346L35.9523 41.571C35.4962 43.6416 37.3415 45.4868 39.4121 45.0308L47.7484 43.1947C49.9482 42.7103 51.9633 41.6065 53.556 40.0138L78.3763 15.1935C81.852 11.7178 81.852 6.08251 78.3763 2.6068C74.9006 -0.868929 69.2653 -0.868939 65.7896 2.6068L40.9693 27.4271ZM42.6713 34.3101C42.9506 33.0422 43.5868 31.8806 44.5048 30.9626L69.3251 6.14231C70.8482 4.61921 73.3176 4.61921 74.8408 6.14231C76.3639 7.66541 76.3639 10.1349 74.8408 11.658L50.0205 36.4783C49.1025 37.3963 47.9409 38.0325 46.673 38.3118L41.541 39.4421L42.6713 34.3101ZM5 17.8499C5 14.26 7.9102 11.3498 11.5 11.3498H37.5C38.8807 11.3498 40 10.2306 40 8.84981C40 7.46911 38.8807 6.34981 37.5 6.34981H11.5C5.1487 6.34981 0 11.4986 0 17.8499V69.8499C0 76.2011 5.1487 81.3499 11.5 81.3499H63.5C69.8513 81.3499 75 76.2011 75 69.8499V43.8498C75 42.4691 73.8807 41.3498 72.5 41.3498C71.1193 41.3498 70 42.4691 70 43.8498V69.8499C70 73.4397 67.0899 76.3499 63.5 76.3499H11.5C7.9102 76.3499 5 73.4397 5 69.8499V17.8499Z" fill="white"/>
</svg>
