<svg viewBox="0 0 72 99" fill="none" xmlns="http://www.w3.org/2000/svg">
<path d="M27.264 0.513428L9.46551 18.4L27.264 36.2866L32.6109 30.9135L24.4059 22.6677C26.2314 22.3647 28.0794 22.1996 29.9374 22.1996C48.7772 22.1996 63.9687 37.4662 63.9687 56.3993C63.9687 75.3325 48.7772 90.5994 29.9374 90.5994C20.9099 90.5994 12.2595 86.9951 5.87628 80.5798L0.521973 85.9534C8.32139 93.7921 18.907 98.1995 29.9374 98.1995C52.8642 98.1995 71.5312 79.4398 71.5312 56.3993C71.5312 33.3588 52.8642 14.5995 29.9374 14.5995C27.7414 14.5995 25.5551 14.8021 23.3941 15.1483L32.6109 5.88567L27.264 0.513428Z" fill="white"/>
</svg>
