<svg width="19" height="24" viewBox="0 0 19 24" fill="none" xmlns="http://www.w3.org/2000/svg">
<path d="M15.3489 6.46652C15.3489 3.38603 12.8389 0.847473 9.72989 0.847473C6.62087 0.847473 4.11084 3.3575 4.11084 6.46652C4.11084 9.57553 6.62087 12.0856 9.72989 12.0856C12.8389 12.0856 15.3489 9.57553 15.3489 6.46652ZM5.53699 6.46652C5.53699 4.15615 7.41952 2.27363 9.72989 2.27363C12.0403 2.27363 13.9228 4.15615 13.9228 6.46652C13.9228 8.77689 12.0403 10.6594 9.72989 10.6594C7.41952 10.6594 5.53699 8.77689 5.53699 6.46652Z" fill="black"/>
<path d="M0.459961 22.4395C0.459961 22.8388 0.773715 23.1525 1.17304 23.1525C1.57236 23.1525 1.88611 22.8388 1.88611 22.4395C1.88611 17.6476 5.25184 14.0252 9.72996 14.0252C14.2081 14.0252 17.5738 17.6476 17.5738 22.4395C17.5738 22.8388 17.8876 23.1525 18.2869 23.1525C18.6862 23.1525 19 22.8388 19 22.4395C19 16.9345 14.9212 12.599 9.72996 12.599C4.53876 12.599 0.459961 16.906 0.459961 22.4395Z" fill="black"/>
</svg>
