<svg viewBox="0 0 82 82" fill="none" xmlns="http://www.w3.org/2000/svg">
<path fill-rule="evenodd" clip-rule="evenodd" d="M5 17.5C5 10.5964 10.5964 5 17.5 5H62.0407H64.5C71.4036 5 77 10.5964 77 17.5V33.4645L74.4497 30.9142C71.7161 28.1805 67.2839 28.1805 64.5502 30.9142L43.4142 52.0503C42.6332 52.8313 41.3668 52.8313 40.5858 52.0503L34.9497 46.4142C32.2161 43.6805 27.7839 43.6805 25.0503 46.4142L5.1332 66.3313C5.0454 65.7336 5 65.1221 5 64.5V17.5ZM7.0994 71.4361C9.341 74.7908 13.1625 77 17.5 77H64.5C71.4036 77 77 71.4036 77 64.5V42.7627V40.5355L70.9142 34.4497C70.1332 33.6687 68.8668 33.6687 68.0858 34.4497L46.9497 55.5858C44.2161 58.3195 39.7839 58.3195 37.0503 55.5858L31.4142 49.9497C30.6332 49.1687 29.3668 49.1687 28.5858 49.9497L7.0994 71.4361ZM17.5 0C7.835 0 0 7.835 0 17.5V64.5C0 74.165 7.835 82 17.5 82H64.5C74.165 82 82 74.165 82 64.5V42.7627V17.5C82 7.835 74.165 0 64.5 0H62.0407H17.5ZM28.5 21C26.567 21 25 22.567 25 24.5C25 26.433 26.567 28 28.5 28C30.433 28 32 26.433 32 24.5C32 22.567 30.433 21 28.5 21ZM20 24.5C20 19.8056 23.8056 16 28.5 16C33.1944 16 37 19.8056 37 24.5C37 29.1944 33.1944 33 28.5 33C23.8056 33 20 29.1944 20 24.5Z" fill="#DE68DE"/>
</svg>
