<svg viewBox="0 0 73 81" fill="none" xmlns="http://www.w3.org/2000/svg">
<path fill-rule="evenodd" clip-rule="evenodd" d="M10.8746 25.2089C10.8746 11.2864 22.161 0 36.0835 0C50.006 0 61.2924 11.2864 61.2924 25.2089V35.9011C61.2924 38.7838 61.94 41.6297 63.1873 44.2286L68.9685 56.2739C72.021 62.6338 67.3858 70 60.3313 70H48.9918C48.2171 76.283 42.6349 81 36.0835 81C29.5321 81 23.9499 76.283 23.1752 70H11.8357C4.7812 70 0.146 62.6338 3.1985 56.2739L8.9797 44.2286C10.227 41.6297 10.8746 38.7838 10.8746 35.9011V25.2089ZM36.0835 76C32.124 76 28.9797 73.3533 28.2458 70H43.9212C43.1873 73.3533 40.043 76 36.0835 76ZM36.0835 5C24.9224 5 15.8746 14.0478 15.8746 25.2089V35.9011C15.8746 39.5328 15.0588 43.118 13.4874 46.3921L7.7062 58.4374C6.2467 61.4781 8.4629 65 11.8357 65H60.3313C63.7041 65 65.9203 61.4781 64.4608 58.4374L58.6796 46.3921C57.1082 43.118 56.2924 39.5328 56.2924 35.9011V25.2089C56.2924 14.0478 47.2446 5 36.0835 5ZM12.6645 4.6447C13.5729 3.6049 13.4663 2.02555 12.4264 1.1172C11.3866 0.20885 9.8073 0.31545 8.8989 1.35529C3.359 7.6972 0 16.0015 0 25.0841C0 26.4648 1.1193 27.5841 2.5 27.5841C3.8807 27.5841 5 26.4648 5 25.0841C5 17.2567 7.8899 10.1105 12.6645 4.6447ZM63.2683 1.35529C62.3599 0.31545 60.7806 0.20885 59.7408 1.1172C58.7009 2.02555 58.5943 3.6049 59.5027 4.6447C64.2773 10.1105 67.1672 17.2567 67.1672 25.0841C67.1672 26.4648 68.2865 27.5841 69.6672 27.5841C71.0479 27.5841 72.1672 26.4648 72.1672 25.0841C72.1672 16.0015 68.8083 7.6972 63.2683 1.35529Z" fill="#DE68DE"/>
</svg>
