<svg width="20" height="20" viewBox="0 0 20 20" fill="none" xmlns="http://www.w3.org/2000/svg">
<path d="M11.8832 0C7.40764 0 3.76626 3.63431 3.76626 8.10157C3.76626 9.63045 4.18818 11.1 4.99116 12.3817L0.539243 16.8238C-0.179748 17.5415 -0.179748 18.7051 0.539243 19.423C1.25823 20.1406 2.42411 20.1406 3.1431 19.423L7.59576 14.9805C8.88059 15.782 10.3526 16.2031 11.883 16.2031C16.359 16.2031 20 12.5687 20 8.10157C20 3.63424 16.3588 0 11.883 0H11.8832ZM11.8708 13.6975C8.7851 13.6975 6.27485 11.1872 6.27485 8.10157C6.27485 5.01605 8.78513 2.50566 11.8708 2.50566C14.9564 2.50551 17.4667 5.01583 17.4667 8.10119C17.4667 11.1866 14.9564 13.6971 11.8708 13.6971V13.6975Z" fill="black"/>
</svg>
