<svg width="74" height="84" viewBox="0 0 74 84" fill="none" xmlns="http://www.w3.org/2000/svg">
<path fill-rule="evenodd" clip-rule="evenodd" d="M23.9483 8.9091C23.9483 4.2837 27.6733 0.5 32.3103 0.5H41.6897C46.3267 0.5 50.0517 4.2837 50.0517 8.9091V9.9545H71C72.3807 9.9545 73.5 11.0738 73.5 12.4545C73.5 13.8353 72.3807 14.9545 71 14.9545H67.8497L62.5818 75.8201C62.2071 80.1488 58.6048 83.5 54.2512 83.5H19.4139C15.0603 83.5 11.458 80.1488 11.0833 75.8201L5.8154 14.9545H3C1.6193 14.9545 0.5 13.8353 0.5 12.4545C0.5 11.0738 1.6193 9.9545 3 9.9545H23.9483V8.9091ZM10.8341 14.9545L16.0647 75.3889C16.2185 77.1659 17.6874 78.5 19.4139 78.5H54.2512C55.9777 78.5 57.4466 77.1659 57.6004 75.3889L62.831 14.9545H10.8341ZM45.0517 9.9545H28.9483V8.9091C28.9483 7.0074 30.4723 5.5 32.3103 5.5H41.6897C43.5277 5.5 45.0517 7.0074 45.0517 8.9091V9.9545ZM23.1318 25.3277C24.5072 25.2073 25.7199 26.2247 25.8403 27.6002L29.3575 67.782C29.4779 69.1574 28.4605 70.3701 27.085 70.4905C25.7096 70.6109 24.497 69.5935 24.3766 68.218L20.8593 28.0362C20.7389 26.6607 21.7563 25.4481 23.1318 25.3277ZM51.7057 25.3277C53.0812 25.4481 54.0986 26.6607 53.9782 28.0362L50.461 68.218C50.3406 69.5935 49.1279 70.6109 47.7525 70.4905C46.377 70.3701 45.3596 69.1574 45.48 67.782L48.9972 27.6002C49.1176 26.2247 50.3303 25.2073 51.7057 25.3277ZM37.4188 25.3182C38.7995 25.3182 39.9188 26.4375 39.9188 27.8182V68C39.9188 69.3807 38.7995 70.5 37.4188 70.5C36.038 70.5 34.9188 69.3807 34.9188 68V27.8182C34.9188 26.4375 36.038 25.3182 37.4188 25.3182Z" fill="white"/>
</svg>
