<svg viewBox="0 0 77 84" fill="none" xmlns="http://www.w3.org/2000/svg">
<path fill-rule="evenodd" clip-rule="evenodd" d="M31.9906 5.49996C31.9906 5.22386 32.2145 4.99996 32.4906 4.99996H44.205C44.4811 4.99996 44.705 5.22386 44.705 5.49996V6.16776C44.705 11.1634 48.0632 15.1465 51.8473 17.3339C55.6805 19.5498 60.8297 20.3768 65.1297 17.7808C65.2462 17.7104 65.3492 17.7062 65.4318 17.7284C65.5144 17.7505 65.6015 17.8055 65.6673 17.9247L71.6254 28.7157C71.6945 28.8408 71.7177 29.0015 71.6721 29.172C71.6265 29.3425 71.526 29.47 71.4036 29.5439C67.3726 31.9775 65.7352 36.5802 65.9342 40.7683C65.9565 41.2385 65.9678 41.7118 65.9678 42.1881C65.9678 42.4726 65.9638 42.756 65.9558 43.0384C65.8401 47.114 67.4889 51.5458 71.4022 53.9084C71.5246 53.9823 71.6251 54.1099 71.6707 54.2803C71.7163 54.4508 71.693 54.6115 71.624 54.7366L65.6686 65.5227C65.6028 65.6419 65.5157 65.6969 65.4331 65.7191C65.3505 65.7412 65.2475 65.737 65.131 65.6666C61.1881 63.2862 56.4627 64.091 53.0458 66.3077C52.5752 66.613 52.0952 66.9039 51.6064 67.1799C47.8993 69.2727 44.705 73.122 44.705 77.9524C44.705 78.2285 44.4811 78.4524 44.205 78.4524H32.4906C32.2145 78.4524 31.9906 78.2285 31.9906 77.9524C31.9906 73.1001 28.791 69.2285 25.0787 67.1056C24.6417 66.8557 24.2119 66.5939 23.7896 66.3205C20.3333 64.0824 15.554 63.2615 11.5662 65.6691C11.4496 65.7394 11.3467 65.7436 11.2641 65.7215C11.1814 65.6994 11.0943 65.6443 11.0285 65.5251L5.07053 54.7341C5.00143 54.609 4.97813 54.4483 5.02383 54.2778C5.06943 54.1074 5.16993 53.9798 5.29223 53.9059C9.26993 51.5045 10.9481 47.0015 10.8554 42.8596C10.8504 42.6364 10.8479 42.4126 10.8479 42.1881C10.8479 41.769 10.8567 41.3521 10.874 40.9377C11.0517 36.6852 9.38693 32.0127 5.29353 29.5415C5.17123 29.4676 5.07073 29.34 5.02513 29.1696C4.97943 28.9991 5.00273 28.8384 5.07183 28.7133L11.0271 17.9272C11.0929 17.808 11.18 17.7529 11.2626 17.7308C11.3453 17.7087 11.4482 17.7129 11.5648 17.7832C15.873 20.3842 21.0606 19.6014 24.9293 17.3565C28.6955 15.1711 31.9906 11.2148 31.9906 6.25686V5.49996ZM32.4906 0C29.4531 0 26.9906 2.46243 26.9906 5.49996V6.25686C26.9906 8.86986 25.2021 11.4174 22.4199 13.0319C19.6163 14.6587 16.4448 14.8889 14.149 13.5028C11.5161 11.9133 8.13653 12.8181 6.65003 15.5104L0.694632 26.2965C-0.755348 28.9228 0.141141 32.2714 2.70933 33.8219C4.81553 35.0935 6.00303 37.746 5.87833 40.7289C5.85813 41.2129 5.84793 41.6993 5.84793 42.1881C5.84793 42.4499 5.85083 42.711 5.85673 42.9715C5.92123 45.8542 4.74553 48.3955 2.70803 49.6255C0.139842 51.176 -0.756649 54.5246 0.693431 57.1509L6.65143 67.9419C8.13793 70.6342 11.5175 71.539 14.1504 69.9495C16.0631 68.7947 18.7428 69.0092 21.072 70.5174C21.5711 70.8406 22.0794 71.1503 22.5966 71.446C25.284 72.9828 26.9906 75.4325 26.9906 77.9524C26.9906 80.99 29.4531 83.4524 32.4906 83.4524H44.205C47.2426 83.4524 49.705 80.99 49.705 77.9524C49.705 75.4624 51.3969 73.0399 54.0645 71.5339C54.6431 71.2073 55.2108 70.8631 55.767 70.5023C58.0489 69.0219 60.6743 68.8166 62.5468 69.9471C65.1797 71.5366 68.5592 70.6318 70.0458 67.9395L76.0011 57.1534C77.4511 54.5271 76.5546 51.1785 73.9864 49.628C72.0154 48.438 70.8745 45.9753 70.9537 43.1801C70.9631 42.8506 70.9678 42.5198 70.9678 42.1881C70.9678 41.6327 70.9546 41.0802 70.9285 40.5311C70.7909 37.6332 71.9458 35.0571 73.9878 33.8243C76.556 32.2738 77.4525 28.9252 76.0025 26.2989L70.0445 15.508C68.5579 12.8156 65.1784 11.9108 62.5455 13.5003C60.2819 14.8669 57.1541 14.6263 54.3496 13.0051C51.5322 11.3765 49.705 8.79726 49.705 6.16776V5.49996C49.705 2.46243 47.2426 0 44.205 0H32.4906ZM28.9993 45.1311C27.5692 39.7938 30.7366 34.3077 36.0739 32.8775C41.4113 31.4474 46.8974 34.6148 48.3275 39.9521C49.7576 45.2895 46.5902 50.7756 41.2529 52.2057C35.9156 53.6358 30.4295 50.4684 28.9993 45.1311ZM34.7798 28.0479C26.7752 30.1928 22.0249 38.4205 24.1697 46.4252C26.3145 54.4299 34.5423 59.1802 42.547 57.0353C50.5516 54.8905 55.302 46.6627 53.1571 38.658C51.0123 30.6534 42.7845 25.9031 34.7798 28.0479Z" fill="#DE68DE"/>
</svg>
