<svg viewBox="0 0 81 81" fill="none" xmlns="http://www.w3.org/2000/svg">
<path fill-rule="evenodd" clip-rule="evenodd" d="M45.1891 6.8069C42.5251 4.3977 38.4749 4.3977 35.8109 6.8069L13.4974 26.9643L13.4911 26.97L7.3145 32.5776L7.3109 32.5808C5.8403 33.9108 5 35.8036 5 37.7904V68.9835C5 72.8627 8.1381 76 12 76H69C72.8619 76 76 72.8627 76 68.9835V37.7904C76 35.8036 75.1597 33.9108 73.6891 32.5808L45.1891 6.8069ZM32.4572 3.0985C37.0254 -1.03283 43.9746 -1.03283 48.5428 3.0985L77.0428 28.8724C79.5628 31.1513 81 34.3919 81 37.7904V68.9835C81 75.6159 75.6315 81 69 81H12C5.3685 81 0 75.6159 0 68.9835V37.7904C0 34.3928 1.43646 31.153 3.9551 28.8742L3.9572 28.8724L10.1429 23.2566L32.4572 3.0985Z" fill="#DE68DE"/>
</svg>
