<svg width="161" height="131" viewBox="0 0 161 131" fill="none" xmlns="http://www.w3.org/2000/svg">
<path d="M106.988 34.1984C106.988 33.9253 106.983 33.6521 106.973 33.379V0H53.7495V44.0418V44.5583C53.7495 59.1296 65.6886 70.9844 80.3637 70.9844C94.8636 70.9844 106.693 59.4077 106.968 45.0798H106.973V44.5633V44.0468V34.7199H106.988V34.1984ZM101.756 33.6819C101.476 22.2096 91.9977 12.9573 80.3737 12.9573C68.7497 12.9573 59.2714 22.2096 58.9913 33.6819H54.8149C55.09 19.9201 66.4539 8.81035 80.3787 8.81035C94.2134 8.81035 105.512 19.7761 105.932 33.4138V33.6819H101.756ZM96.5492 33.6819H96.5392C96.2641 25.0653 89.1217 18.1372 80.3737 18.1372C71.6307 18.1372 64.4882 25.0653 64.2081 33.6819H64.1931H60.0267C60.3068 22.7808 69.3249 13.9952 80.3687 13.9952C91.4174 13.9952 100.436 22.7808 100.711 33.6819H96.5492ZM105.912 45.4622C105.907 45.5714 105.907 45.6857 105.897 45.7949C105.892 45.8992 105.887 46.0085 105.877 46.1128C105.872 46.222 105.862 46.3313 105.857 46.4406C105.847 46.5448 105.837 46.6541 105.832 46.7584C105.822 46.8627 105.812 46.972 105.802 47.0763C105.792 47.1855 105.777 47.2898 105.767 47.3991C105.757 47.5034 105.742 47.6077 105.732 47.707C105.717 47.8162 105.702 47.9255 105.687 48.0298C105.672 48.1291 105.657 48.2334 105.642 48.3327C105.627 48.442 105.607 48.5513 105.592 48.6605C105.577 48.7598 105.562 48.8592 105.542 48.9585C105.522 49.0678 105.502 49.177 105.482 49.2863C105.462 49.3856 105.447 49.48 105.427 49.5793C105.407 49.6886 105.382 49.7978 105.357 49.9071C105.337 50.0014 105.317 50.0958 105.297 50.1902C105.272 50.2994 105.247 50.4087 105.217 50.518C105.192 50.6123 105.172 50.7017 105.147 50.7961C105.117 50.9053 105.087 51.0146 105.062 51.1238C105.037 51.2132 105.012 51.3076 104.987 51.397C104.957 51.5063 104.922 51.6155 104.892 51.7248C104.867 51.8142 104.837 51.9036 104.812 51.993C104.777 52.1022 104.742 52.2115 104.707 52.3207C104.677 52.4101 104.652 52.4946 104.622 52.579C104.587 52.6883 104.547 52.7975 104.507 52.9068C104.477 52.9912 104.447 53.0756 104.417 53.165C104.377 53.2743 104.337 53.3835 104.297 53.4878C104.267 53.5723 104.232 53.6567 104.202 53.7411C104.162 53.8504 104.117 53.9596 104.072 54.0639C104.037 54.1484 104.007 54.2278 103.972 54.3123C103.927 54.4215 103.882 54.5258 103.832 54.6351C103.797 54.7145 103.762 54.794 103.727 54.8784C103.677 54.9827 103.632 55.092 103.582 55.1963C103.547 55.2757 103.507 55.3552 103.472 55.4347C103.422 55.5389 103.372 55.6432 103.317 55.7525C103.277 55.832 103.237 55.9065 103.201 55.9859C103.146 56.0902 103.096 56.1945 103.041 56.2938C103.001 56.3733 102.961 56.4478 102.916 56.5273C102.866 56.6216 102.811 56.716 102.761 56.8153L82.3143 45.0947H105.927C105.927 45.1195 105.927 45.1394 105.927 45.1642C105.922 45.2536 105.917 45.3579 105.912 45.4622ZM101.991 58.0917C101.926 58.191 101.866 58.2903 101.801 58.3847C101.756 58.4542 101.706 58.5287 101.661 58.5982C101.596 58.6976 101.531 58.7919 101.461 58.8913C101.411 58.9608 101.361 59.0303 101.316 59.0998C101.246 59.1942 101.181 59.2886 101.111 59.3879C101.061 59.4574 101.011 59.527 100.961 59.5965C100.891 59.6908 100.821 59.7852 100.751 59.8796C100.701 59.9491 100.646 60.0137 100.596 60.0832C100.526 60.1775 100.451 60.2669 100.381 60.3563C100.326 60.4209 100.27 60.4904 100.22 60.555C100.145 60.6444 100.07 60.7338 99.9954 60.8232C99.9404 60.8877 99.8854 60.9523 99.8303 61.0218C99.7553 61.1112 99.6803 61.2006 99.6003 61.285C99.5452 61.3496 99.4852 61.4142 99.4302 61.4787C99.3502 61.5632 99.2752 61.6526 99.1951 61.737C99.1351 61.8016 99.0801 61.8611 99.0201 61.9257C98.94 62.0101 98.86 62.0946 98.78 62.179C98.72 62.2386 98.6599 62.3032 98.5999 62.3628C98.5199 62.4472 98.4349 62.5266 98.3548 62.6111C98.2948 62.6707 98.2298 62.7303 98.1698 62.7899C98.0847 62.8693 98.0047 62.9488 97.9197 63.0282C97.8547 63.0878 97.7946 63.1474 97.7296 63.2021C97.6446 63.2815 97.5596 63.356 97.4745 63.4355C97.4095 63.4951 97.3445 63.5497 97.2795 63.6093C97.1944 63.6838 97.1044 63.7633 97.0194 63.8378C96.9543 63.8974 96.8843 63.952 96.8143 64.0066C96.7243 64.0811 96.6392 64.1506 96.5492 64.2251C96.4792 64.2798 96.4092 64.3344 96.3441 64.389C96.2541 64.4586 96.1641 64.5331 96.0741 64.6026C96.004 64.6572 95.934 64.7118 95.864 64.7615C95.7739 64.831 95.6839 64.9006 95.5889 64.9651C95.5189 65.0198 95.4438 65.0694 95.3738 65.124C95.2838 65.1886 95.1887 65.2581 95.0937 65.3227C95.0187 65.3724 94.9437 65.427 94.8686 65.4767C94.7736 65.5412 94.6836 65.6058 94.5885 65.6654C94.5135 65.7151 94.4385 65.7647 94.3635 65.8144C94.2684 65.874 94.1734 65.9385 94.0784 65.9981C94.0033 66.0478 93.9233 66.0925 93.8483 66.1422C93.7733 66.1869 93.6982 66.2365 93.6232 66.2812L81.8192 45.9787L102.266 57.6993C102.231 57.7589 102.196 57.8135 102.161 57.8731C102.081 57.9427 102.036 58.0172 101.991 58.0917ZM92.2177 67.051C92.1177 67.1007 92.0227 67.1553 91.9226 67.205C91.8376 67.2497 91.7526 67.2894 91.6675 67.3291C91.5675 67.3788 91.4675 67.4285 91.3674 67.4731C91.2824 67.5129 91.1974 67.5526 91.1073 67.5923C91.0073 67.637 90.9073 67.6867 90.8072 67.7314C90.7172 67.7711 90.6322 67.8059 90.5421 67.8456C90.4421 67.8903 90.3421 67.935 90.242 67.9748C90.152 68.0145 90.062 68.0492 89.972 68.084C89.8719 68.1237 89.7719 68.1684 89.6668 68.2082C89.5768 68.2429 89.4818 68.2777 89.3918 68.3125C89.2917 68.3522 89.1867 68.387 89.0867 68.4267C88.9916 68.4615 88.9016 68.4912 88.8065 68.526C88.7065 68.5608 88.6015 68.5956 88.5014 68.6303C88.4064 68.6601 88.3114 68.6899 88.2164 68.7247C88.1163 68.7594 88.0113 68.7892 87.9112 68.824C87.8162 68.8538 87.7162 68.8836 87.6161 68.9084C87.5161 68.9382 87.4111 68.968 87.311 68.9978C87.211 69.0276 87.111 69.0525 87.0109 69.0773C86.9109 69.1071 86.8059 69.1319 86.7008 69.1617C86.6008 69.1865 86.4958 69.2114 86.3957 69.2362C86.2957 69.261 86.1907 69.2859 86.0906 69.3107C85.9856 69.3355 85.8805 69.3554 85.7755 69.3802C85.6755 69.4001 85.5704 69.4249 85.4704 69.4448C85.3654 69.4647 85.2603 69.4845 85.1503 69.5044C85.0503 69.5243 84.9502 69.5441 84.8452 69.564C84.7352 69.5839 84.6301 69.5988 84.5201 69.6186C84.42 69.6335 84.32 69.6534 84.215 69.6683C84.1049 69.6832 83.9949 69.6981 83.8799 69.713C83.7798 69.7279 83.6798 69.7428 83.5798 69.7527C83.4647 69.7676 83.3497 69.7775 83.2346 69.7924C83.1396 69.8024 83.0396 69.8173 82.9445 69.8272C82.8245 69.8371 82.6995 69.8471 82.5794 69.862C82.4894 69.8719 82.3944 69.8769 82.3043 69.8868C82.1743 69.8967 82.0492 69.9017 81.9192 69.9116C81.8342 69.9166 81.7441 69.9216 81.6591 69.9265C81.5241 69.9315 81.384 69.9365 81.249 69.9414C81.1689 69.9464 81.0889 69.9464 81.0089 69.9514C80.9639 69.9514 80.9188 69.9514 80.8788 69.9514V46.5051L92.6829 66.8076C92.6079 66.8474 92.5328 66.8921 92.4578 66.9318C92.3828 66.9666 92.2978 67.0063 92.2177 67.051ZM79.4683 69.9315C79.3333 69.9265 79.1932 69.9216 79.0582 69.9166C78.9732 69.9116 78.8831 69.9067 78.7981 69.9017C78.6681 69.8918 78.538 69.8868 78.413 69.8769C78.3179 69.8719 78.2279 69.862 78.1379 69.852C78.0178 69.8421 77.8928 69.8322 77.7728 69.8173C77.6727 69.8073 77.5777 69.7974 77.4827 69.7825C77.3676 69.7676 77.2526 69.7577 77.1375 69.7428C77.0375 69.7328 76.9375 69.713 76.8374 69.703C76.7274 69.6881 76.6124 69.6732 76.5023 69.6583C76.4023 69.6435 76.3023 69.6236 76.1972 69.6087C76.0872 69.5888 75.9821 69.5739 75.8721 69.5541C75.7721 69.5342 75.672 69.5143 75.567 69.4945C75.462 69.4746 75.3519 69.4547 75.2469 69.4349C75.1469 69.415 75.0418 69.3902 74.9418 69.3703C74.8368 69.3504 74.7317 69.3256 74.6267 69.3008C74.5266 69.2759 74.4216 69.2511 74.3216 69.2263C74.2215 69.2014 74.1165 69.1766 74.0165 69.1518C73.9114 69.1269 73.8114 69.0972 73.7064 69.0674C73.6063 69.0425 73.5063 69.0127 73.4063 68.9879C73.3012 68.9581 73.2012 68.9283 73.1012 68.8985C73.0011 68.8687 72.9061 68.8439 72.8061 68.8141C72.701 68.7843 72.601 68.7495 72.501 68.7147C72.4059 68.6849 72.3109 68.6551 72.2159 68.6204C72.1108 68.5856 72.0108 68.5508 71.9107 68.5161C71.8157 68.4813 71.7257 68.4515 71.6307 68.4168C71.5306 68.382 71.4256 68.3423 71.3255 68.3025C71.2355 68.2678 71.1405 68.233 71.0505 68.1982C70.9504 68.1585 70.8504 68.1188 70.7453 68.0741C70.6553 68.0393 70.5653 67.9996 70.4753 67.9648C70.3752 67.9251 70.2752 67.8804 70.1752 67.8357C70.0851 67.796 69.9951 67.7612 69.9101 67.7215C69.81 67.6768 69.71 67.6321 69.61 67.5824C69.5249 67.5427 69.4399 67.5029 69.3499 67.4632C69.2498 67.4136 69.1498 67.3689 69.0498 67.3192C68.9647 67.2795 68.8797 67.2348 68.7947 67.195C68.6946 67.1454 68.5996 67.0957 68.4996 67.0411C68.4145 66.9964 68.3345 66.9566 68.2495 66.9119C68.1745 66.8722 68.0994 66.8325 68.0244 66.7878L79.8285 46.4853V69.9315C79.7835 69.9315 79.7384 69.9315 79.6984 69.9315C79.6284 69.9414 79.5484 69.9365 79.4683 69.9315ZM66.674 65.9981C66.5789 65.9385 66.4839 65.874 66.3889 65.8144C66.3138 65.7647 66.2388 65.7151 66.1638 65.6654C66.0687 65.6008 65.9787 65.5412 65.8837 65.4767C65.8087 65.427 65.7336 65.3773 65.6586 65.3227C65.5636 65.2581 65.4735 65.1886 65.3785 65.124C65.3085 65.0744 65.2335 65.0198 65.1634 64.9651C65.0734 64.8956 64.9784 64.8261 64.8883 64.7615C64.8183 64.7069 64.7483 64.6572 64.6783 64.6026C64.5882 64.5331 64.4982 64.4635 64.4082 64.389C64.3381 64.3344 64.2681 64.2798 64.2031 64.2251C64.1131 64.1506 64.028 64.0811 63.938 64.0066C63.868 63.952 63.803 63.8924 63.7329 63.8378C63.6429 63.7633 63.5579 63.6888 63.4729 63.6093C63.4078 63.5497 63.3428 63.4951 63.2778 63.4355C63.1928 63.356 63.1077 63.2815 63.0227 63.2021C62.9577 63.1425 62.8977 63.0829 62.8326 63.0282C62.7476 62.9488 62.6626 62.8693 62.5825 62.7899C62.5225 62.7303 62.4575 62.6707 62.3975 62.6111C62.3125 62.5316 62.2324 62.4472 62.1524 62.3628C62.0924 62.3032 62.0324 62.2386 61.9723 62.179C61.8923 62.0946 61.8123 62.0101 61.7323 61.9257C61.6722 61.8611 61.6122 61.8016 61.5572 61.737C61.4772 61.6526 61.4021 61.5681 61.3221 61.4787C61.2621 61.4142 61.2071 61.3496 61.1521 61.285C61.077 61.1956 60.997 61.1112 60.922 61.0218C60.867 60.9573 60.8119 60.8927 60.7569 60.8232C60.6819 60.7338 60.6069 60.6444 60.5318 60.555C60.4768 60.4904 60.4218 60.4209 60.3718 60.3563C60.2968 60.2669 60.2267 60.1726 60.1517 60.0832C60.1017 60.0137 60.0467 59.9491 59.9967 59.8796C59.9266 59.7852 59.8566 59.6908 59.7866 59.5965C59.7366 59.527 59.6866 59.4574 59.6365 59.3879C59.5665 59.2935 59.5015 59.1992 59.4315 59.0998C59.3814 59.0303 59.3314 58.9608 59.2864 58.8913C59.2214 58.7969 59.1514 58.6976 59.0863 58.5982C59.0363 58.5287 58.9913 58.4542 58.9463 58.3847C58.8813 58.2854 58.8163 58.186 58.7562 58.0917C58.7112 58.0172 58.6662 57.9476 58.6212 57.8731C58.5862 57.8135 58.5512 57.7589 58.5161 57.6993L78.9632 45.9787L67.1591 66.2812C67.0841 66.2365 67.0091 66.1918 66.934 66.1422C66.829 66.0925 66.749 66.0428 66.674 65.9981ZM57.6859 56.2839C57.6308 56.1796 57.5758 56.0753 57.5258 55.976C57.4858 55.8965 57.4458 55.822 57.4108 55.7426C57.3608 55.6383 57.3057 55.534 57.2557 55.4247C57.2157 55.3453 57.1807 55.2658 57.1457 55.1863C57.0957 55.082 57.0456 54.9728 57.0006 54.8685C56.9656 54.789 56.9306 54.7046 56.8956 54.6251C56.8506 54.5208 56.8056 54.4116 56.7605 54.3073C56.7255 54.2229 56.6905 54.1434 56.6605 54.059C56.6155 53.9497 56.5755 53.8454 56.5305 53.7362C56.4955 53.6517 56.4654 53.5673 56.4354 53.4829C56.3954 53.3736 56.3554 53.2644 56.3154 53.1601C56.2854 53.0756 56.2554 52.9912 56.2254 52.9018C56.1853 52.7925 56.1503 52.6833 56.1103 52.574C56.0803 52.4896 56.0553 52.4002 56.0253 52.3158C55.9903 52.2065 55.9553 52.0973 55.9203 51.988C55.8952 51.8986 55.8652 51.8092 55.8402 51.7198C55.8102 51.6105 55.7752 51.5013 55.7452 51.392C55.7202 51.3026 55.6952 51.2132 55.6702 51.1189C55.6402 51.0096 55.6102 50.9004 55.5851 50.7911C55.5601 50.6967 55.5401 50.6073 55.5151 50.513C55.4901 50.4037 55.4601 50.2945 55.4351 50.1852C55.4151 50.0908 55.3951 49.9965 55.3751 49.9021C55.3501 49.7929 55.3301 49.6836 55.305 49.5743C55.285 49.48 55.265 49.3806 55.25 49.2813C55.23 49.1721 55.21 49.0628 55.19 48.9535C55.175 48.8542 55.155 48.7549 55.14 48.6556C55.12 48.5463 55.105 48.437 55.09 48.3278C55.075 48.2285 55.06 48.1242 55.045 48.0248C55.03 47.9156 55.0149 47.8063 54.9999 47.702C54.9849 47.5977 54.9749 47.4934 54.9649 47.3941C54.9549 47.2848 54.9399 47.1805 54.9299 47.0713C54.9199 46.967 54.9099 46.8577 54.8999 46.7534C54.8899 46.6491 54.8799 46.5399 54.8749 46.4356C54.8649 46.3263 54.8599 46.2171 54.8549 46.1078C54.8499 46.0035 54.8399 45.8992 54.8349 45.79C54.8299 45.6807 54.8249 45.5665 54.8199 45.4572C54.8149 45.3529 54.8099 45.2486 54.8099 45.1443C54.8099 45.1195 54.8099 45.0996 54.8099 45.0748H78.423L57.976 56.7954C57.9209 56.7011 57.8709 56.6067 57.8209 56.5074C57.7709 56.4379 57.7259 56.3584 57.6859 56.2839ZM64.1981 34.7149V44.0418H54.8049V34.7149H58.9813H64.1981ZM69.4199 34.7149H74.6367V44.0418H65.2435V34.7149H69.4199ZM95.4938 34.7149V44.0418H86.1156V34.7149H91.3324H95.4938ZM85.0703 34.7149V44.0418H75.677V34.7149H85.0703ZM75.7071 33.6819C75.9671 31.3527 77.9628 29.535 80.3737 29.535C82.7845 29.535 84.7802 31.3527 85.0403 33.6819H75.7071ZM86.1156 33.6819H86.0906C85.8255 30.7816 83.3647 28.502 80.3737 28.502C77.3826 28.502 74.9218 30.7816 74.6567 33.6819H74.6317H70.4703C70.7453 28.4921 75.0818 24.3551 80.3737 24.3551C85.6655 24.3551 90.002 28.4921 90.2771 33.6819H86.1156ZM95.4938 33.6819H91.3174C91.0423 27.921 86.2407 23.3171 80.3737 23.3171C74.5066 23.3171 69.7 27.921 69.4299 33.6819H65.2535C65.5286 25.6364 72.2059 19.1752 80.3787 19.1752C88.5465 19.1752 95.2238 25.6364 95.4938 33.6819ZM105.932 1.03797V26.8184C102.706 15.8278 92.4728 7.77237 80.3787 7.77237C68.2495 7.77237 57.991 15.8725 54.7949 26.9078V1.03301H105.932V1.03797ZM105.932 44.0418H96.5492V34.7149H101.766H105.927V44.0418H105.932Z" fill="#161C3D"/>
<path d="M5.5883 98.9099C3.83184 98.9099 2.46297 98.5638 1.4768 97.8669C0.490633 97.17 0 96.3025 0 95.2644C0 94.0313 0.63782 93.4124 1.91837 93.4124C1.938 95.1425 2.26182 96.4438 2.88983 97.3259C3.51784 98.2081 4.48438 98.6467 5.77965 98.6467C6.91301 98.6467 7.8354 98.3201 8.537 97.6671C9.23861 97.014 9.58695 96.0393 9.58695 94.7331C9.58695 93.9387 9.43977 93.2954 9.14539 92.8032C8.85101 92.3109 8.38 91.8625 7.73236 91.4678C7.08473 91.073 6.23593 90.6344 5.19089 90.1568C4.64138 89.8936 4.07716 89.606 3.50312 89.299C2.92417 88.992 2.39429 88.6216 1.90856 88.1878C1.41793 87.754 1.03033 87.2326 0.735948 86.6136C0.441569 85.9947 0.294379 85.249 0.294379 84.3668C0.294379 82.7829 0.804634 81.5742 1.82515 80.7457C2.84566 79.9172 4.20962 79.5029 5.91212 79.5029C6.94244 79.5029 7.84521 79.6443 8.62531 79.9269C9.40542 80.2096 10.0138 80.58 10.4505 81.0381C10.8871 81.4963 11.103 81.9982 11.103 82.5441C11.103 83.0558 10.9068 83.4555 10.5192 83.7479C10.1266 84.0403 9.6213 84.1865 9.0031 84.1865C9.0031 82.7244 8.76269 81.623 8.28678 80.8822C7.80596 80.1414 7.01114 79.771 5.89249 79.771C4.86217 79.771 4.04281 80.078 3.42952 80.697C2.81623 81.3159 2.51204 82.2224 2.51204 83.4214C2.51204 84.284 2.67394 84.9809 2.99286 85.5122C3.31177 86.0434 3.79259 86.4966 4.43041 86.8719C5.06823 87.2521 5.88758 87.6712 6.87866 88.1293C7.76671 88.5338 8.58606 88.9578 9.34164 89.3965C10.0972 89.8351 10.7056 90.3956 11.1668 91.073C11.628 91.7504 11.8586 92.6277 11.8586 93.7048C11.8586 95.3082 11.314 96.5802 10.2199 97.5111C9.11594 98.4469 7.57536 98.9099 5.5883 98.9099Z" fill="#161C3D"/>
<path d="M18.9243 98.9094C17.5554 98.9094 16.4859 98.5634 15.7058 97.8665C14.9256 97.1695 14.5331 96.2143 14.5331 94.9959C14.5331 93.641 15.0336 92.6273 16.0394 91.9547C17.0403 91.287 18.5612 90.9166 20.6023 90.8435L22.8101 90.7655V88.7868C22.8101 87.7975 22.7561 86.9884 22.6482 86.3549C22.5403 85.7213 22.3097 85.2485 21.9564 84.9415C21.6031 84.6345 21.0585 84.4785 20.3324 84.4785C19.3021 84.4785 18.6446 84.7953 18.3503 85.4289C18.0559 86.0624 17.9087 87.0615 17.9087 88.4164C17.1629 88.4164 16.5987 88.2946 16.2209 88.046C15.8382 87.7975 15.6469 87.393 15.6469 86.8276C15.6469 86.194 15.8628 85.6872 16.2994 85.307C16.7361 84.9269 17.3101 84.6491 18.0313 84.4736C18.7477 84.2982 19.5523 84.2104 20.4404 84.2104C22.0742 84.2104 23.2909 84.5565 24.1005 85.2437C24.91 85.9309 25.3123 87.1103 25.3123 88.7868V96.6919C25.3123 97.3255 25.435 97.769 25.6852 98.0127C25.9354 98.2612 26.3574 98.3831 26.9609 98.3831H27.0394V98.6462H23.0211V95.8683H22.972C22.6874 96.9258 22.187 97.6959 21.4658 98.1832C20.7494 98.6706 19.9007 98.9094 18.9243 98.9094ZM19.4591 98.539C20.1165 98.539 20.6955 98.3733 21.2008 98.037C21.7062 97.7008 22.1036 97.2524 22.3833 96.687C22.6678 96.1217 22.8101 95.5174 22.8101 94.8643V91.0579L21.1076 91.1359C19.6014 91.2042 18.5563 91.5502 17.9823 92.1691C17.4033 92.7881 17.1188 93.8262 17.1188 95.2883C17.1139 97.4571 17.894 98.539 19.4591 98.539Z" fill="#161C3D"/>
<path d="M28.5354 98.6464V98.3832H28.8837C29.6638 98.3832 30.2232 98.2223 30.5617 97.9056C30.9002 97.5888 31.067 97.0673 31.067 96.346V80.877C31.067 80.1362 30.9002 79.6098 30.5617 79.2882C30.2232 78.9714 29.6638 78.8106 28.8837 78.8106H28.5354V78.5522H33.5644V96.2144C33.5644 96.9893 33.7312 97.5449 34.0697 97.8812C34.4082 98.2175 34.9676 98.3832 35.7477 98.3832H36.096V98.6464H28.5354Z" fill="#161C3D"/>
<path d="M37.0532 98.6462V98.383H37.4016C38.1817 98.383 38.741 98.2222 39.0796 97.9054C39.4181 97.5886 39.5849 97.0671 39.5849 96.3458V86.8032C39.5849 86.0624 39.4181 85.536 39.0796 85.2144C38.741 84.8976 38.1817 84.7367 37.4016 84.7367H37.3231V84.4736H42.0871V96.2142C42.0871 96.9891 42.2539 97.5447 42.5925 97.881C42.931 98.2173 43.4903 98.383 44.2704 98.383H44.6188V98.6462H37.0532ZM40.6986 81.9344C40.3601 81.9344 40.0804 81.8223 39.8597 81.603C39.6389 81.3837 39.526 80.9986 39.526 80.4528C39.526 79.8874 39.6389 79.5024 39.8597 79.288C40.0804 79.0784 40.3601 78.9712 40.6986 78.9712C41.0176 78.9712 41.2923 79.0784 41.5229 79.288C41.7535 79.4975 41.8713 79.8874 41.8713 80.4528C41.8713 80.9986 41.7535 81.3837 41.5229 81.603C41.2923 81.8272 41.0176 81.9344 40.6986 81.9344Z" fill="#161C3D"/>
<path d="M45.703 98.6467V98.3836H45.9139C46.7284 98.3836 47.2975 98.2081 47.6164 97.8523C47.9353 97.5014 48.0973 96.8679 48.0973 95.9467V87.1205C48.0973 86.2238 47.9452 85.5999 47.6459 85.2588C47.3417 84.9128 46.7873 84.7422 45.9679 84.7422H45.8354V84.479H50.5749V86.9646H50.6289C50.8595 86.1555 51.203 85.5512 51.6543 85.1516C52.1057 84.7568 52.5963 84.4985 53.1164 84.3864C53.6414 84.2743 54.1222 84.2158 54.5687 84.2158C56.1485 84.2158 57.326 84.6252 58.0963 85.444C58.8666 86.2628 59.2542 87.5835 59.2542 89.3965V95.9516C59.2542 96.8679 59.3965 97.5014 59.6811 97.8572C59.9656 98.2081 60.4906 98.3884 61.2511 98.3884H61.3836V98.6516H56.752V88.4949C56.752 87.3496 56.5361 86.4138 56.0995 85.6925C55.6628 84.9712 54.9318 84.6106 53.9014 84.6106C53.0674 84.6106 52.4099 84.8299 51.934 85.2734C51.4532 85.712 51.1146 86.2823 50.9086 86.9792C50.7025 87.6761 50.6044 88.4023 50.6044 89.1626V95.9516C50.6044 96.8679 50.7565 97.5014 51.0558 97.8572C51.3551 98.2081 51.9144 98.3884 52.7337 98.3884H52.8662V98.6516H45.703V98.6467Z" fill="#161C3D"/>
<path d="M69.8955 98.9094C67.9084 98.9094 66.358 98.2758 65.2492 97.0038C64.1403 95.7367 63.5859 93.9529 63.5859 91.6623C63.5859 89.1962 64.0962 87.3345 65.1167 86.0819C66.1372 84.8294 67.5944 84.2056 69.4931 84.2056C71.2153 84.2056 72.5694 84.7368 73.5507 85.7944C74.5368 86.852 75.0275 88.431 75.0275 90.5267V91.1603H66.1617C66.1814 93.8554 66.4758 95.7805 67.0547 96.9258C67.6287 98.0711 68.6051 98.6462 69.9691 98.6462C70.965 98.6462 71.7991 98.3733 72.486 97.8275C73.168 97.2816 73.6095 96.4726 73.8058 95.3955C74.0168 95.4296 74.1787 95.5368 74.2866 95.7123C74.3946 95.8877 74.4485 96.0729 74.4485 96.2679C74.4485 96.6188 74.2817 97.0038 73.9432 97.4181C73.6047 97.8323 73.1042 98.1832 72.4369 98.4757C71.7697 98.7632 70.9258 98.9094 69.8955 98.9094ZM66.1716 90.902H72.3486C72.3486 88.5919 72.1278 86.9446 71.6814 85.9601C71.2398 84.9756 70.494 84.4785 69.4441 84.4785C68.3598 84.4785 67.5699 84.9707 67.0596 85.9601C66.5542 86.9446 66.2599 88.5919 66.1716 90.902Z" fill="#161C3D"/>
<path d="M82.9669 98.6462V98.3831H83.3153C84.0954 98.3831 84.6547 98.2222 84.9933 97.9054C85.3318 97.5886 85.4986 97.0672 85.4986 96.3459V86.8032C85.4986 86.0624 85.3318 85.5361 84.9933 85.2144C84.6547 84.8976 84.0954 84.7368 83.3153 84.7368H83.2368V84.4736H87.9763V87.1151H88.0303C88.1529 86.657 88.3394 86.2086 88.5896 85.7651C88.8398 85.3265 89.2127 84.9561 89.7082 84.6539C90.2038 84.3566 90.8858 84.2056 91.7591 84.2056C92.6275 84.2056 93.3046 84.3761 93.7805 84.7222C94.2613 85.0682 94.4968 85.5458 94.4968 86.1648C94.4968 86.696 94.3055 87.1346 93.9228 87.4855C93.5401 87.8364 92.9072 88.0168 92.0191 88.0168C92.0191 86.9251 91.8327 86.1697 91.4598 85.7554C91.0869 85.3411 90.6699 85.1364 90.2087 85.1364C89.6935 85.1364 89.2863 85.3168 88.9821 85.6774C88.6779 86.0381 88.4571 86.5059 88.3148 87.081C88.1726 87.6561 88.0843 88.2458 88.0499 88.8502C88.0156 89.4594 87.9959 90.0198 87.9959 90.5267V96.2094C87.9959 96.9843 88.1628 97.5399 88.5013 97.8762C88.8398 98.2125 89.3992 98.3782 90.1793 98.3782H90.5276V98.6414H82.9669V98.6462Z" fill="#161C3D"/>
<path d="M102.528 98.9094C100.609 98.9094 99.1032 98.3002 98.0041 97.0867C96.9051 95.8683 96.3556 94.0211 96.3556 91.5356C96.3556 89.0695 96.8855 87.2321 97.9404 86.0235C98.9952 84.8148 100.551 84.2104 102.611 84.2104C104.53 84.2104 106.036 84.8148 107.135 86.0235C108.234 87.2321 108.783 89.0695 108.783 91.5356C108.783 94.0211 108.249 95.8731 107.189 97.0867C106.119 98.3051 104.569 98.9094 102.528 98.9094ZM102.582 98.6462C103.877 98.6462 104.804 98.1004 105.364 97.0087C105.923 95.917 106.203 94.0894 106.203 91.5356C106.203 88.9964 105.923 87.1883 105.364 86.1014C104.804 85.0195 103.867 84.4736 102.557 84.4736C101.242 84.4736 100.31 85.0146 99.7606 86.1014C99.2111 87.1834 98.9363 88.9964 98.9363 91.5356C98.9363 94.0894 99.216 95.917 99.7753 97.0087C100.33 98.1004 101.267 98.6462 102.582 98.6462Z" fill="#161C3D"/>
<path d="M110.726 104.993V104.73C111.967 104.73 112.973 104.637 113.748 104.452C114.519 104.267 115.132 103.975 115.583 103.58C116.035 103.185 116.417 102.673 116.726 102.045C117.036 101.421 117.359 100.675 117.698 99.8125L111.869 86.1955C111.639 85.6302 111.413 85.25 111.192 85.0453C110.971 84.8406 110.692 84.7432 110.353 84.7432H109.818V84.48H116.206V84.7432H116.128C115.632 84.7432 115.235 84.8163 114.945 84.9673C114.651 85.1184 114.504 85.3865 114.504 85.7715C114.504 86.0737 114.612 86.4782 114.823 86.9899L117.114 92.5167C117.379 93.1697 117.664 93.891 117.968 94.6854C118.267 95.4798 118.517 96.1768 118.714 96.7762C118.944 96.089 119.165 95.436 119.381 94.8219C119.592 94.2029 119.773 93.6668 119.916 93.2087L121.858 87.1556C122.02 86.678 122.099 86.2832 122.099 85.9664C122.099 85.1574 121.515 84.748 120.342 84.748H119.224V84.4849H124.758V84.748H124.547C123.89 84.748 123.414 84.8796 123.124 85.1428C122.83 85.406 122.54 85.9616 122.261 86.8096L118.375 98.7598C117.968 100.027 117.565 101.07 117.178 101.879C116.785 102.688 116.334 103.322 115.819 103.785C115.304 104.243 114.661 104.559 113.891 104.735C113.12 104.91 112.149 104.998 110.976 104.998H110.726V104.993Z" fill="#161C3D"/>
<path d="M130.474 98.9094C129.105 98.9094 128.036 98.5634 127.255 97.8665C126.475 97.1695 126.083 96.2143 126.083 94.9959C126.083 93.641 126.583 92.6273 127.589 91.9547C128.59 91.287 130.111 90.9166 132.152 90.8435L134.36 90.7655V88.7868C134.36 87.7975 134.306 86.9884 134.198 86.3549C134.09 85.7213 133.859 85.2485 133.506 84.9415C133.153 84.6345 132.608 84.4785 131.882 84.4785C130.852 84.4785 130.194 84.7953 129.9 85.4289C129.606 86.0624 129.458 87.0615 129.458 88.4164C128.713 88.4164 128.148 88.2946 127.771 88.046C127.388 87.7975 127.197 87.393 127.197 86.8276C127.197 86.194 127.412 85.6872 127.849 85.307C128.286 84.9269 128.86 84.6491 129.581 84.4736C130.297 84.2982 131.102 84.2104 131.99 84.2104C133.624 84.2104 134.841 84.5565 135.65 85.2437C136.46 85.9309 136.862 87.1103 136.862 88.7868V96.6919C136.862 97.3255 136.985 97.769 137.235 98.0127C137.485 98.2612 137.907 98.3831 138.511 98.3831H138.589V98.6462H134.571V95.8683H134.517C134.232 96.9258 133.732 97.6959 133.011 98.1832C132.299 98.6706 131.45 98.9094 130.474 98.9094ZM131.009 98.539C131.666 98.539 132.245 98.3733 132.75 98.037C133.256 97.7008 133.653 97.2524 133.933 96.687C134.217 96.1217 134.36 95.5174 134.36 94.8643V91.0579L132.657 91.1359C131.151 91.2042 130.106 91.5502 129.532 92.1691C128.953 92.7881 128.668 93.8262 128.668 95.2883C128.664 97.4571 129.444 98.539 131.009 98.539Z" fill="#161C3D"/>
<path d="M140.085 98.6464V98.3832H140.433C141.213 98.3832 141.773 98.2223 142.111 97.9056C142.45 97.5888 142.617 97.0673 142.617 96.346V80.877C142.617 80.1362 142.45 79.6098 142.111 79.2882C141.773 78.9714 141.213 78.8106 140.433 78.8106H140.085V78.5522H145.114V96.2144C145.114 96.9893 145.281 97.5449 145.619 97.8812C145.958 98.2175 146.517 98.3832 147.297 98.3832H147.646V98.6464H140.085Z" fill="#161C3D"/>
<path d="M155.761 98.9094C153.774 98.9094 152.224 98.2758 151.115 97.0038C150.006 95.7367 149.452 93.9529 149.452 91.6623C149.452 89.1962 149.962 87.3345 150.982 86.0819C152.003 84.8294 153.46 84.2056 155.359 84.2056C157.081 84.2056 158.435 84.7368 159.416 85.7944C160.402 86.852 160.893 88.431 160.893 90.5267V91.1603H152.027C152.047 93.8554 152.341 95.7805 152.92 96.9258C153.494 98.0711 154.471 98.6462 155.835 98.6462C156.831 98.6462 157.665 98.3733 158.352 97.8275C159.034 97.2816 159.475 96.4726 159.671 95.3955C159.882 95.4296 160.044 95.5368 160.152 95.7123C160.26 95.8877 160.314 96.0729 160.314 96.2679C160.314 96.6188 160.147 97.0038 159.809 97.4181C159.47 97.8323 158.97 98.1832 158.303 98.4757C157.635 98.7632 156.791 98.9094 155.761 98.9094ZM152.032 90.902H158.209C158.209 88.5919 157.989 86.9446 157.542 85.9601C157.101 84.9756 156.355 84.4785 155.305 84.4785C154.221 84.4785 153.431 84.9707 152.92 85.9601C152.42 86.9446 152.126 88.5919 152.032 90.902Z" fill="#161C3D"/>
<path d="M35.7502 109.477C37.2761 109.477 38.4143 109.866 39.1552 110.641C39.901 111.416 40.2738 112.644 40.2738 114.316V123.781H39.1307L38.8363 121.402H38.7823C38.3015 122.197 37.7176 122.835 37.0259 123.318C36.3341 123.8 35.3675 124.044 34.1262 124.044C32.8653 124.044 31.8644 123.708 31.1186 123.04C30.3729 122.372 30 121.393 30 120.106C30 118.712 30.5348 117.645 31.6093 116.909C32.6838 116.168 34.2587 115.754 36.3341 115.666L38.7578 115.535V114.555C38.7578 113.161 38.5027 112.181 37.9875 111.606C37.4723 111.036 36.7119 110.749 35.6962 110.749C35.0241 110.749 34.3666 110.841 33.7288 111.026C33.091 111.212 32.4581 111.48 31.8399 111.835L31.3345 110.617C31.9723 110.281 32.6641 110.008 33.4099 109.798C34.1557 109.589 34.9358 109.477 35.7502 109.477ZM38.7578 116.694L36.5499 116.802C34.8818 116.87 33.6356 117.177 32.8113 117.713C31.9871 118.249 31.5749 119.058 31.5749 120.13C31.5749 120.993 31.8301 121.651 32.3354 122.099C32.8408 122.548 33.5375 122.772 34.4255 122.772C35.7895 122.772 36.8541 122.358 37.6195 121.529C38.38 120.701 38.7627 119.536 38.7627 118.04V116.694H38.7578Z" fill="#161C3D"/>
<path d="M49.855 124.045C47.9023 124.045 46.3961 123.416 45.3314 122.154C44.2667 120.892 43.7319 119.118 43.7319 116.827C43.7319 115.258 44.0018 113.922 44.5415 112.821C45.0812 111.719 45.8318 110.881 46.7886 110.311C47.7453 109.736 48.864 109.453 50.1445 109.453C50.7823 109.453 51.3858 109.516 51.9549 109.638C52.5241 109.76 53.0294 109.931 53.471 110.14L53.0441 111.461C52.1021 111.022 51.1209 110.798 50.0905 110.798C48.545 110.798 47.3626 111.334 46.5384 112.411C45.7141 113.489 45.302 114.951 45.302 116.803C45.302 118.567 45.6699 119.995 46.4059 121.087C47.1418 122.178 48.2801 122.724 49.8256 122.724C50.4978 122.724 51.1258 122.656 51.6998 122.515C52.2738 122.373 52.8037 122.188 53.2845 121.959V123.309C52.8577 123.538 52.3622 123.718 51.793 123.85C51.2337 123.982 50.5861 124.045 49.855 124.045Z" fill="#161C3D"/>
<path d="M61.1706 109.477C62.6965 109.477 63.8298 109.866 64.5756 110.641C65.3214 111.416 65.6942 112.644 65.6942 114.316V123.781H64.5511L64.2567 121.402H64.2027C63.7219 122.197 63.138 122.835 62.4463 123.318C61.7545 123.8 60.7879 124.044 59.5466 124.044C58.2857 124.044 57.2848 123.708 56.5391 123.04C55.7933 122.372 55.4204 121.393 55.4204 120.106C55.4204 118.712 55.9552 117.645 57.0297 116.909C58.1042 116.168 59.6791 115.754 61.7545 115.666L64.1782 115.535V114.555C64.1782 113.161 63.9231 112.181 63.4079 111.606C62.8927 111.036 62.1323 110.749 61.1166 110.749C60.4445 110.749 59.787 110.841 59.1492 111.026C58.5114 111.212 57.8785 111.48 57.2603 111.835L56.7549 110.617C57.3928 110.281 58.0845 110.008 58.8303 109.798C59.5761 109.584 60.3562 109.477 61.1706 109.477ZM64.1782 116.694L61.9703 116.802C60.3022 116.87 59.056 117.177 58.2317 117.713C57.4075 118.249 56.9953 119.058 56.9953 120.13C56.9953 120.993 57.2505 121.651 57.7558 122.099C58.2612 122.548 58.9579 122.772 59.8459 122.772C61.2099 122.772 62.2745 122.358 63.0399 121.529C63.8004 120.701 64.1831 119.536 64.1831 118.04V116.694H64.1782Z" fill="#161C3D"/>
<path d="M74.692 124.044C72.916 124.044 71.552 123.44 70.5953 122.231C69.6385 121.023 69.1577 119.249 69.1577 116.904C69.1577 114.472 69.6582 112.62 70.664 111.353C71.6648 110.086 73.0533 109.448 74.8294 109.448C75.9284 109.448 76.8263 109.701 77.5181 110.213C78.2099 110.725 78.7348 111.368 79.0881 112.143H79.196C79.1617 111.719 79.1323 111.251 79.1175 110.739C79.0979 110.227 79.093 109.779 79.093 109.389V103.677H80.6091V123.771H79.3825L79.1421 121.339H79.0832C78.7299 122.08 78.2001 122.714 77.4985 123.245C76.7969 123.781 75.8647 124.044 74.692 124.044ZM74.9324 122.753C76.4583 122.753 77.5328 122.261 78.151 121.271C78.7741 120.282 79.0832 118.864 79.0832 117.016V116.753C79.0832 114.814 78.7692 113.327 78.1363 112.299C77.5083 111.266 76.4534 110.754 74.9815 110.754C73.5979 110.754 72.5431 111.285 71.812 112.352C71.0859 113.42 70.7228 114.94 70.7228 116.914C70.7228 118.834 71.0712 120.292 71.763 121.276C72.4548 122.256 73.5096 122.753 74.9324 122.753Z" fill="#161C3D"/>
<path d="M89.9947 109.453C91.1281 109.453 92.0897 109.731 92.8698 110.287C93.6499 110.842 94.2338 111.602 94.6263 112.572C95.0188 113.542 95.2102 114.653 95.2102 115.906V116.963H85.736C85.7557 118.815 86.1678 120.239 86.9724 121.233C87.782 122.227 88.9399 122.729 90.4461 122.729C91.2802 122.729 92.0063 122.661 92.6294 122.519C93.2525 122.378 93.9247 122.13 94.6508 121.779V123.153C93.9934 123.47 93.3359 123.699 92.6834 123.84C92.026 123.982 91.2655 124.05 90.3921 124.05C88.3855 124.05 86.8498 123.406 85.7753 122.12C84.7008 120.833 84.166 119.079 84.166 116.856C84.166 115.428 84.3966 114.156 84.8578 113.035C85.319 111.914 85.9814 111.037 86.84 110.403C87.7035 109.77 88.7534 109.453 89.9947 109.453ZM89.9947 110.72C88.7878 110.72 87.8114 111.154 87.0657 112.017C86.3199 112.879 85.8832 114.107 85.7606 115.691H93.6401C93.6205 114.21 93.3212 113.011 92.7374 112.095C92.1535 111.178 91.236 110.72 89.9947 110.72Z" fill="#161C3D"/>
<path d="M112.779 109.452C114.109 109.452 115.144 109.846 115.88 110.641C116.616 111.435 116.984 112.688 116.984 114.394V123.78H115.493V114.472C115.493 113.204 115.233 112.269 114.708 111.669C114.183 111.07 113.461 110.772 112.539 110.772C111.278 110.772 110.312 111.167 109.639 111.947C108.967 112.732 108.629 113.945 108.629 115.583V123.78H107.137V114.472C107.137 113.204 106.872 112.269 106.337 111.669C105.803 111.07 105.077 110.772 104.154 110.772C102.913 110.772 101.956 111.182 101.279 112.001C100.607 112.819 100.268 114.087 100.268 115.792V123.775H98.7769V109.71H99.974L100.214 111.932H100.322C100.661 111.245 101.166 110.66 101.838 110.173C102.511 109.69 103.364 109.447 104.395 109.447C105.371 109.447 106.19 109.666 106.858 110.11C107.525 110.548 107.996 111.211 108.28 112.093H108.388C108.776 111.245 109.35 110.597 110.106 110.139C110.861 109.681 111.749 109.452 112.779 109.452Z" fill="#161C3D"/>
<path d="M119.035 109.716H120.684L123.799 118.469C124.084 119.244 124.324 119.936 124.516 120.545C124.712 121.154 124.864 121.695 124.967 122.173H125.045C125.153 121.768 125.301 121.247 125.497 120.613C125.693 119.98 125.924 119.273 126.189 118.498L129.25 109.721H130.899L124.908 126.301C124.466 127.534 123.922 128.489 123.284 129.171C122.646 129.849 121.793 130.19 120.728 130.19C120.389 130.19 120.095 130.166 119.835 130.112C119.58 130.058 119.334 129.995 119.104 129.927V128.66C119.531 128.816 120.007 128.899 120.541 128.899C121.253 128.899 121.822 128.669 122.259 128.211C122.695 127.753 123.088 127.056 123.441 126.121L124.265 123.742L119.035 109.716Z" fill="#161C3D"/>
</svg>
